<svg width="79" height="30" viewBox="0 0 79 30" fill="none" xmlns="http://www.w3.org/2000/svg">
<path d="M0.21 29V0.599998H5.73V24.16H20.21V29H0.21ZM75.0988 8.04C74.9121 7.85333 74.5654 7.6 74.0588 7.28C73.5788 6.96 72.9788 6.65333 72.2588 6.36C71.5654 6.04 70.8054 5.77333 69.9788 5.56C69.1521 5.34667 68.3121 5.24 67.4588 5.24C65.9388 5.24 64.8054 5.52 64.0588 6.08C63.3121 6.64 62.9388 7.42667 62.9388 8.44C62.9388 9.02667 63.0721 9.52 63.3388 9.92C63.6321 10.2933 64.0454 10.6267 64.5788 10.92C65.1121 11.2133 65.7788 11.48 66.5788 11.72C67.4054 11.96 68.3521 12.2133 69.4188 12.48C70.8054 12.8533 72.0588 13.2533 73.1788 13.68C74.3254 14.1067 75.2854 14.64 76.0588 15.28C76.8588 15.92 77.4721 16.6933 77.8988 17.6C78.3254 18.48 78.5388 19.5733 78.5388 20.88C78.5388 22.4 78.2454 23.7067 77.6588 24.8C77.0988 25.8667 76.3254 26.7333 75.3388 27.4C74.3788 28.0667 73.2588 28.56 71.9788 28.88C70.7254 29.1733 69.4054 29.32 68.0188 29.32C65.8854 29.32 63.7788 29 61.6988 28.36C59.6188 27.72 57.7521 26.8133 56.0988 25.64L58.5388 20.88C58.7788 21.12 59.2054 21.44 59.8188 21.84C60.4588 22.2133 61.2054 22.6 62.0588 23C62.9121 23.3733 63.8588 23.6933 64.8988 23.96C65.9388 24.2267 67.0054 24.36 68.0988 24.36C71.1388 24.36 72.6588 23.3867 72.6588 21.44C72.6588 20.8267 72.4854 20.3067 72.1388 19.88C71.7921 19.4533 71.2988 19.08 70.6588 18.76C70.0188 18.44 69.2454 18.1467 68.3388 17.88C67.4321 17.6133 66.4188 17.32 65.2988 17C63.9388 16.6267 62.7521 16.2267 61.7388 15.8C60.7521 15.3467 59.9254 14.8267 59.2588 14.24C58.5921 13.6267 58.0854 12.9333 57.7388 12.16C57.4188 11.36 57.2588 10.4133 57.2588 9.32C57.2588 7.88 57.5254 6.6 58.0588 5.48C58.5921 4.36 59.3254 3.42666 60.2588 2.68C61.2188 1.93333 62.3254 1.37333 63.5788 0.999998C64.8321 0.599998 66.1788 0.399999 67.6188 0.399999C69.6188 0.399999 71.4588 0.719999 73.1388 1.36C74.8188 1.97333 76.2854 2.70667 77.5388 3.56L75.0988 8.04Z" fill="#E0E0E0"/>
<path d="M46.7294 29V10.2L39.4094 24.2H36.4094L29.0894 10.2V29H23.5694V0.599998H29.4894L37.8894 16.76L46.3694 0.599998H52.2494V29H46.7294Z" fill="white"/>
</svg>
