<svg width="287" height="220" viewBox="0 0 287 220" fill="none" xmlns="http://www.w3.org/2000/svg">
<g clip-path="url(#clip0_1619_1810)">
<path d="M267.583 189.65L268.074 178.59C273.188 175.85 278.892 174.402 284.691 174.373C276.71 180.915 277.707 193.526 272.296 202.323C270.588 205.054 268.288 207.364 265.568 209.083C262.848 210.801 259.777 211.884 256.582 212.251L249.903 216.351C248.987 211.229 249.189 205.968 250.496 200.932C251.802 195.896 254.182 191.203 257.472 187.178C259.34 184.938 261.482 182.943 263.847 181.239C265.446 185.468 267.583 189.65 267.583 189.65Z" fill="#F2F2F2"/>
<path d="M166.306 219.104C162.904 218.861 162.017 219.534 156.87 219.104H147.435L148.662 196.465L163.516 202.433L237.333 204.249L237.29 204.375C237.257 204.472 233.979 214.083 236.541 217.723L236.647 217.873L236.44 217.875L168.724 218.498C167.985 218.505 167.039 219.156 166.306 219.104Z" fill="#F2F2F2"/>
<path d="M170.134 219.398C163.563 218.929 156.758 221.491 151.079 218.599L146.54 218.875L146.527 218.837C146.492 218.732 144.347 201.815 148.682 195.256L148.873 194.967L149.022 196.52L147.593 217.594L150.761 216.534C158.454 220.164 167.603 217.767 176.408 217.733L236.33 217.511C237.585 217.507 238.63 218.367 238.664 219.429L238.667 219.532L173.753 219.527C172.543 219.527 171.336 219.484 170.134 219.398Z" fill="#CCCCCC"/>
<path d="M233.171 208.814L165.739 207.47L165.67 207.444L149.738 201.458L150.039 200.652L165.902 206.613L233.188 207.954L233.171 208.814Z" fill="#E6E6E6"/>
<path d="M232.811 212.435L165.379 211.091L165.31 211.065L149.378 205.079L149.679 204.273L165.543 210.235L232.828 211.575L232.811 212.435Z" fill="#E6E6E6"/>
<path d="M232.451 216.055L165.019 214.711L164.95 214.685L149.018 208.698L149.319 207.893L165.183 213.854L232.469 215.195L232.451 216.055Z" fill="#E6E6E6"/>
<path d="M170.6 204.482C164.347 204.059 158.252 202.335 152.701 199.419L148.027 196.934L148.149 195.705C148.183 195.525 148.282 195.363 148.428 195.252C148.573 195.141 148.755 195.087 148.937 195.102L149.35 195.107L212.237 196.035C216.353 196.086 220.431 196.828 224.303 198.231L238.005 203.218L237.997 203.291C237.882 204.448 236.718 205.343 235.347 205.327L173.401 204.599C172.464 204.588 171.53 204.549 170.6 204.482Z" fill="#E6E6E6"/>
<path d="M237.873 203.484L237.859 203.484L162.446 201.751L162.394 201.727L148.797 195.414L148.935 195.203L149.348 195.208L162.572 201.351L237.286 203.066L237.885 203.08L237.873 203.484Z" fill="#CCCCCC"/>
<path d="M179.247 195.649L178.289 195.636L156.677 195.315L155.653 195.301C160.591 200.572 171.51 201.89 187.514 199.848L179.247 195.649Z" fill="#CCCCCC"/>
<path d="M240.01 69.5808L241.329 72.6557L239.174 83.5755L217.191 80.5113L217.367 67.1956L217.808 64.2793L240.01 69.5808Z" fill="#FFB6B6"/>
<path d="M251.368 211.104H246.518L244.209 192.35H251.368V211.104Z" fill="#FFB6B6"/>
<path d="M236.941 217.454C236.942 218.004 237.16 218.532 237.549 218.922C237.937 219.311 238.464 219.53 239.013 219.531H248.24L249.831 216.239L250.448 219.531H253.926L252.948 207.774L251.368 207.681L246.056 207.364L245.2 207.311V210.641L237.836 215.742C237.56 215.933 237.334 216.189 237.179 216.487C237.023 216.785 236.941 217.117 236.941 217.454Z" fill="#2F2E41"/>
<path d="M206.541 189.604H201.691L198.838 161.993L207.951 161.447L206.541 189.604Z" fill="#FFB6B6"/>
<path d="M192.115 195.954C192.115 196.504 192.334 197.033 192.722 197.422C193.111 197.811 193.637 198.031 194.187 198.031H203.413L205.004 194.739L205.622 198.031H209.099L208.122 186.274L206.711 186.191L201.307 185.864L200.374 185.811V189.141L193.01 194.242C192.734 194.433 192.508 194.689 192.352 194.987C192.196 195.285 192.115 195.617 192.115 195.954Z" fill="#2F2E41"/>
<path d="M253.426 194.932H253.408L252.475 164.437C253.078 163.269 253.385 161.971 253.367 160.656C253.348 159.341 253.006 158.051 252.371 156.901L252.237 156.659L252.583 155.05C253.028 152.982 252.824 150.828 251.999 148.881L251.129 120.435C254.238 100.236 239.423 87.0634 239.423 87.0634L240.784 76.4766L216.822 77.0226L217.23 87.0634L212.465 103.476C209.958 127.968 193.082 143.363 195.647 166.785C195.652 166.852 195.642 166.92 195.618 166.983C195.358 167.776 195.266 168.616 195.349 169.447C195.432 170.278 195.688 171.082 196.1 171.808C196.206 171.993 196.28 172.196 196.317 172.407C196.845 176.513 196.914 171.319 197.614 175.389L197.478 175.458C196.987 175.628 196.777 176.309 197.008 176.98C197.239 177.651 197.824 178.057 198.314 177.887L211.124 178.024C211.614 177.855 211.825 177.173 211.594 176.502C211.363 175.831 210.778 175.425 210.287 175.595L209.491 175.999L210.824 171.626L211.291 171.188C211.515 170.979 211.689 170.721 211.799 170.435C211.91 170.148 211.954 169.84 211.93 169.534C211.905 169.228 211.811 168.932 211.656 168.667C211.501 168.402 211.288 168.176 211.033 168.006L212.361 160.899L212.172 155.524L212.561 149.426L229.369 125.008L236.169 158.737L243.115 195.271C242.952 195.418 242.831 195.603 242.761 195.811C242.691 196.018 242.676 196.24 242.716 196.455C242.78 196.755 242.946 197.024 243.186 197.215C243.426 197.406 243.725 197.507 244.031 197.502H253.46C253.658 197.502 253.853 197.456 254.03 197.367C254.207 197.279 254.362 197.151 254.481 196.994C254.601 196.836 254.683 196.653 254.72 196.458C254.758 196.263 254.75 196.063 254.697 195.872C254.618 195.597 254.45 195.356 254.22 195.186C253.991 195.016 253.712 194.927 253.426 194.932Z" fill="#2F2E41"/>
<path d="M245.041 17.6911C245.042 19.6381 244.566 21.5555 243.655 23.275C242.744 24.9944 241.426 26.4634 239.816 27.553C238.207 28.6426 236.355 29.3194 234.424 29.5241C232.493 29.7287 230.541 29.455 228.74 28.7268C226.939 27.9986 225.344 26.8383 224.095 25.3478C222.845 23.8572 221.98 22.082 221.575 20.1779C221.169 18.2738 221.237 16.299 221.77 14.427C222.304 12.5549 223.288 10.8429 224.635 9.44104L224.692 9.384C224.787 9.28405 224.882 9.18415 224.982 9.08896C224.982 9.08897 224.983 9.08886 224.984 9.08862C224.984 9.08839 224.985 9.08803 224.985 9.08759C224.986 9.08714 224.986 9.08661 224.986 9.08603C224.986 9.08545 224.986 9.08483 224.986 9.0842C225.123 8.98461 225.248 8.87143 225.361 8.74641C226.963 6.50265 228.779 4.62122 233.177 5.79662C239.51 7.48883 245.041 11.1205 245.041 17.6911Z" fill="#2F2E41"/>
<path d="M179.871 12.5984C179.844 13.2348 179.957 13.8694 180.201 14.4574C180.445 15.0454 180.815 15.5726 181.284 16.0019C181.754 16.4311 182.311 16.7519 182.918 16.9418C183.524 17.1316 184.165 17.1858 184.794 17.1006L215.39 42.2756L220.063 34.0402L188.519 11.8836C188.306 10.8327 187.716 9.89655 186.861 9.25262C186.006 8.6087 184.944 8.3017 183.878 8.38982C182.812 8.47794 181.816 8.95504 181.077 9.73071C180.339 10.5064 179.909 11.5268 179.871 12.5985V12.5984Z" fill="#FFB6B6"/>
<path d="M228.309 49.7006C228.309 49.7006 228.3 48.794 223.436 48.8288C217.399 48.8721 200.771 40.1819 202.226 31.9976C201.535 32.3104 200.76 32.3841 200.024 32.2069C199.287 32.0297 198.63 31.6117 198.156 31.0189L206.25 23.2051C208.79 23.3771 208.816 25.0812 208.599 26.0597L215.104 28.6514L232.048 38.4112L229.056 48.2147L228.309 49.7006Z" fill="#6C63FF"/>
<path d="M230.254 30.4168C235.749 30.4168 240.203 25.9513 240.203 20.4428C240.203 14.9343 235.749 10.4688 230.254 10.4688C224.76 10.4688 220.306 14.9343 220.306 20.4428C220.306 25.9513 224.76 30.4168 230.254 30.4168Z" fill="#FFB7B7"/>
<path d="M216.582 70.0528C216.032 70.7881 215.751 71.6905 215.787 72.6086C215.822 73.5267 216.172 74.4046 216.776 75.0951C216.781 75.3877 216.825 75.6705 217.238 76.719C217.292 76.8206 217.356 76.917 217.428 77.0067C217.441 77.0286 217.456 77.0497 217.472 77.0701C217.907 77.6348 218.513 78.0435 219.198 78.2355L237.408 83.3315L239.816 84.0044L240.239 84.1215L240.473 80.825C241.014 80.375 241.377 79.7455 241.496 79.0505C241.614 78.3555 241.481 77.6409 241.12 77.0359L240.784 76.48L242.739 71.2086L242.929 70.6868L247.914 57.2327L247.919 56.3354L247.929 55.4089L247.978 48.9427C247.98 46.9047 247.511 44.894 246.608 43.0681C245.705 41.2423 244.393 39.6511 242.773 38.4193C241.298 37.2893 239.598 36.491 237.788 36.0786L237.749 36.0737L235.779 33.416L227.788 34.2158L227.126 35.5763L226.324 37.2148L220.531 40.6722L218.551 45.2853L217.214 48.4063C215.142 49.8985 213.906 51.8149 213.551 54.0971C212.793 58.9443 216.178 63.7964 216.582 64.3523L216.684 69.9164L216.582 70.0528Z" fill="#6C63FF"/>
<path d="M240.666 23.0567C240.576 23.0424 240.486 23.0234 240.395 23.0091C238.844 22.7332 237.292 22.462 235.745 22.1812L235.602 18.6653L233.728 21.8149C229.452 23.2375 225.452 22.4334 221.689 20.6588C220.447 20.068 219.243 19.4023 218.082 18.6653C217.7 12.719 220.098 8.91222 224.56 9.31146C224.723 9.32604 224.84 9.15924 224.982 9.0878C224.983 9.08781 224.983 9.0877 224.984 9.08746C224.984 9.08723 224.985 9.08687 224.985 9.08642C224.986 9.08598 224.986 9.08545 224.986 9.08487C224.987 9.08429 224.987 9.08367 224.987 9.08304C225.229 8.96886 225.476 8.85944 225.722 8.75954C227.654 8.00259 229.761 7.8109 231.797 8.20674C233.833 8.60258 235.716 9.5697 237.225 10.9957C240.262 13.9027 241.629 18.7033 240.666 23.0567Z" fill="#2F2E41"/>
<path d="M240.395 23.0104C240.395 23.0104 237.448 11.9819 224.816 9.43643C224.802 9.43173 224.754 9.41268 224.692 9.38416C224.654 9.36035 224.607 9.33654 224.56 9.31278C224.702 9.23188 224.84 9.16056 224.982 9.08912C224.983 9.08913 224.983 9.08902 224.984 9.08878C224.984 9.08855 224.985 9.08819 224.985 9.08775C224.986 9.0873 224.986 9.08677 224.986 9.08619C224.987 9.08561 224.987 9.08499 224.987 9.08436C225.11 8.97018 225.233 8.856 225.362 8.74658L225.722 8.76086C225.722 8.76086 238.397 6.74833 240.395 23.0104Z" fill="#FD6584"/>
<path d="M245.255 92.5303C245.021 92.7308 244.737 92.8629 244.433 92.9122C244.129 92.9615 243.818 92.926 243.532 92.8098C242.965 92.5686 242.462 92.1991 242.061 91.7304C240.424 90.0094 239.255 87.8967 238.665 85.5939L239.21 84.6206C238.996 83.4202 239.198 82.1825 239.782 81.1129C240.366 80.0432 241.297 79.206 242.421 78.7401C243.06 78.4682 243.769 78.4064 244.446 78.5635C244.782 78.6471 245.089 78.82 245.334 79.064C245.58 79.3079 245.755 79.6139 245.842 79.9495C246.052 80.9908 245.187 81.9309 244.311 82.5287C242.784 83.5673 241.02 84.2002 239.183 84.3682C241.43 85.638 243.373 87.3857 244.874 89.4887C245.221 89.9273 245.477 90.4312 245.627 90.9706C245.699 91.2411 245.703 91.5253 245.638 91.7976C245.573 92.0699 245.441 92.3217 245.255 92.5303Z" fill="#2F2E41"/>
<path d="M119.508 219.885H286.465C286.607 219.885 286.743 219.828 286.843 219.728C286.944 219.627 287 219.491 287 219.349C287 219.207 286.944 219.07 286.843 218.97C286.743 218.869 286.607 218.812 286.465 218.812H119.508C119.366 218.812 119.23 218.869 119.13 218.97C119.029 219.07 118.973 219.207 118.973 219.349C118.973 219.491 119.029 219.627 119.13 219.728C119.23 219.828 119.366 219.885 119.508 219.885Z" fill="#CCCCCC"/>
<path d="M163.848 82.0301V82.3103C163.247 81.6038 162.633 80.9034 162.026 80.203C161.771 79.9106 161.516 79.6183 161.26 79.326C160.179 78.0956 159.092 76.8694 157.998 75.6472C156.899 74.4291 155.799 73.211 154.687 71.999C154.42 71.7067 154.153 71.4143 153.88 71.122C153.661 70.8763 153.423 70.6482 153.169 70.4398C152.912 70.2257 152.617 70.0625 152.3 69.9586C151.935 69.8572 151.55 69.853 151.182 69.9465C150.763 70.044 150.362 70.1963 149.955 70.3241C149.536 70.4642 149.123 70.5982 148.704 70.7321C147.865 71.0063 147.033 71.2804 146.195 71.5544C146.185 71.5585 146.174 71.5606 146.163 71.5605C146.152 71.5605 146.141 71.5583 146.131 71.554C146.121 71.5497 146.112 71.5435 146.105 71.5358C146.097 71.528 146.091 71.5188 146.087 71.5086L146.086 71.5057C146.081 71.4941 146.079 71.4817 146.079 71.4692C146.08 71.4567 146.083 71.4445 146.089 71.4335C146.095 71.4224 146.103 71.4128 146.113 71.4053C146.123 71.3978 146.134 71.3925 146.146 71.39C146.353 71.323 146.566 71.256 146.778 71.1889C147.623 70.9088 148.461 70.6348 149.305 70.3607C149.724 70.2206 150.144 70.0866 150.563 69.9526C150.952 69.8046 151.362 69.7222 151.778 69.709C152.456 69.7579 153.093 70.0574 153.564 70.5495C153.825 70.7931 154.062 71.0489 154.299 71.3108C154.578 71.6153 154.858 71.9199 155.137 72.2244C156.261 73.4547 157.377 74.6891 158.484 75.9274C159.596 77.1699 160.698 78.4144 161.789 79.661C161.868 79.7523 161.947 79.8437 162.026 79.9351C162.639 80.6293 163.241 81.3298 163.848 82.0301Z" fill="white"/>
<path d="M153.074 71.5634C152.845 71.267 152.539 71.0391 152.19 70.9043L151.844 70.9164C154.556 75.1464 158.108 78.7705 162.279 81.5622C159.211 78.2293 156.142 74.8963 153.074 71.5634Z" fill="white"/>
<path d="M209.658 115.521L195.896 41.6429C195.66 40.4251 195.019 39.3236 194.077 38.519C193.135 37.7144 191.949 37.2545 190.712 37.2147C190.601 37.2123 190.49 37.2123 190.378 37.2147L181.003 37.5519L179.994 37.5891L175.316 37.7577L174.307 37.7924L171.297 37.9015L110.611 40.0859C110.519 40.0908 110.425 40.0908 110.334 40.0883L96.7347 39.8032L91.7023 39.6991L91.5415 39.6966L87.8271 39.6172L55.461 38.9428L46.8799 38.7618L42.6486 38.6751L41.6347 38.6528L36.81 38.5536L35.7985 38.5313L30.8625 38.4296L29.851 38.4073L24.4278 38.2932L23.5771 38.2759L18.74 38.1742L17.9759 38.1593H17.8646C16.5805 38.1646 15.3395 38.6249 14.3611 39.4588C13.3827 40.2927 12.7299 41.4466 12.5181 42.7165L0.0716494 119.379C-0.0547431 120.155 -0.0112277 120.95 0.199171 121.708C0.40957 122.466 0.781815 123.17 1.29014 123.769C1.79847 124.369 2.43072 124.85 3.14308 125.18C3.85544 125.51 4.6309 125.682 5.41571 125.681H76.8942C77.9462 125.684 78.97 126.023 79.8172 126.648L81.1724 127.655C82.1064 128.344 83.2349 128.718 84.3946 128.721C98.1998 125.068 112.714 125.068 126.519 128.721C127.231 128.723 127.936 128.583 128.593 128.31C129.251 128.037 129.848 127.635 130.35 127.129C131.208 126.269 132.353 125.758 133.565 125.694L204.618 121.94C205.388 121.9 206.141 121.695 206.826 121.339C207.511 120.983 208.113 120.484 208.59 119.877C209.067 119.269 209.409 118.566 209.593 117.814C209.777 117.063 209.799 116.281 209.658 115.521V115.521Z" fill="#CCCCCC"/>
<path d="M190.186 104C190.094 106.503 189.015 108.868 187.186 110.574C185.356 112.28 182.926 113.188 180.428 113.098C176.303 112.952 171.379 112.879 166.035 112.991C148.584 113.365 126.659 115.773 113.471 124.433C111.813 125.524 109.855 126.063 107.874 125.973C107.728 125.964 107.586 125.955 107.441 125.943C105.387 125.754 103.452 124.895 101.934 123.496C94.6684 116.831 78.0062 108.76 39.8653 108.192C39.7066 108.192 39.5522 108.184 39.3978 108.175C38.1625 108.097 36.9545 107.776 35.8431 107.23C34.7317 106.683 33.7385 105.923 32.9204 104.992C32.1023 104.06 31.4752 102.976 31.0751 101.802C30.675 100.628 30.5096 99.3858 30.5885 98.1474L34.3369 38.5021L34.8988 29.5624L35.8852 13.9234C35.9847 12.3484 36.6785 10.8705 37.8256 9.78985C38.9727 8.70923 40.4872 8.10698 42.0612 8.10547H42.0998L64.8222 8.23877C74.3949 8.67307 82.3236 9.8957 88.6082 11.9067C90.7549 12.5741 92.8435 13.4168 94.8528 14.4265C97.5972 15.7605 100.063 17.6066 102.118 19.866C103.398 21.3093 105.144 22.2547 107.05 22.5363C107.346 22.5805 107.644 22.6078 107.942 22.618C109.7 22.6909 111.434 22.1932 112.887 21.199C127.731 11.2273 157.981 10.4705 174.686 10.9005C177.022 10.9551 179.254 11.8797 180.948 13.4941C182.641 15.1086 183.675 17.2972 183.847 19.6338L184.524 28.5305L185.198 37.4014L189.083 88.6702L190.164 102.933C190.191 103.288 190.198 103.644 190.186 104Z" fill="#F2F2F2"/>
<path d="M45.5183 29.0949C59.2114 24.7149 74.4879 25.8745 87.4602 32.0451C91.1615 33.7966 94.6572 35.9553 97.8828 38.4812C98.7953 39.1992 100.094 37.9149 99.1714 37.1892C87.2566 27.9237 72.2859 23.5222 57.2671 24.869C53.1121 25.2417 49.0101 26.068 45.0338 27.3331C43.9207 27.6891 44.3965 29.4538 45.5183 29.0949H45.5183Z" fill="#3F3D56"/>
<path d="M120.867 39.1902C133.598 32.4812 148.843 31.0182 162.685 34.8265C166.631 35.9096 170.445 37.4299 174.055 39.3592C175.09 39.9126 176.011 38.3359 174.975 37.7815C161.783 30.7238 145.946 29.0991 131.54 33.0334C127.521 34.1328 123.634 35.6683 119.947 37.6124C118.908 38.1598 119.828 39.7373 120.867 39.1902Z" fill="#3F3D56"/>
<path d="M120.867 51.3718C133.598 44.6628 148.843 43.1999 162.685 47.0081C166.631 48.0913 170.445 49.6115 174.055 51.5409C175.09 52.0942 176.011 50.5175 174.975 49.9632C161.783 42.9054 145.946 41.2808 131.54 45.215C127.521 46.3145 123.634 47.8499 119.947 49.7941C118.908 50.3414 119.828 51.919 120.867 51.3718L120.867 51.3718Z" fill="#3F3D56"/>
<path d="M175.421 62.8991C175.431 62.7423 175.393 62.5862 175.313 62.4512C175.233 62.3161 175.114 62.2083 174.972 62.1418C164.403 56.5935 152.421 54.3432 140.566 55.6804C140.491 55.6864 140.423 55.6983 140.343 55.7043H140.34C140.267 55.7108 140.194 55.7218 140.123 55.7371C133.072 56.5506 126.231 58.6644 119.947 61.9719C119.81 62.0537 119.697 62.1698 119.618 62.3089C119.539 62.4479 119.498 62.6051 119.498 62.765V85.4886C119.5 85.6285 119.534 85.766 119.597 85.8907C119.66 86.0154 119.751 86.1241 119.862 86.2086C119.973 86.2931 120.102 86.351 120.239 86.3782C120.376 86.4053 120.517 86.4009 120.652 86.3653C120.932 86.2848 121.211 86.2072 121.497 86.1327C127.85 84.4085 134.372 83.3857 140.946 83.0824C141.086 83.0764 141.226 83.0705 141.372 83.0645C146.727 82.8339 152.092 83.0273 157.416 83.6429C157.528 83.6492 157.639 83.6612 157.75 83.6787C158.023 83.7085 158.303 83.7413 158.576 83.7771C158.686 83.789 158.79 83.8009 158.892 83.8188C159.956 83.953 161.012 84.1051 162.071 84.2691C163.599 84.5136 165.128 84.7859 166.657 85.0861C166.752 85.104 166.85 85.1278 166.948 85.1457C169.402 85.6347 171.843 86.2012 174.273 86.8274C174.408 86.8624 174.55 86.8661 174.687 86.8384C174.824 86.8106 174.953 86.752 175.064 86.667C175.175 86.582 175.265 86.4729 175.328 86.3478C175.391 86.2227 175.425 86.0849 175.427 85.9448V62.9349C175.428 62.9227 175.426 62.9104 175.421 62.8991Z" fill="#3F3D56"/>
<path d="M141.995 56.9196C141.327 56.5918 140.562 56.5244 139.847 56.7305C139.532 56.8491 139.243 57.0294 138.997 57.2609C138.752 57.4924 138.555 57.7705 138.417 58.0791C138.17 58.6707 138.011 59.2959 137.946 59.9342C137.909 60.1852 137.906 60.502 138.158 60.6193C138.249 60.6525 138.348 60.6601 138.443 60.6411C138.539 60.6222 138.627 60.5775 138.699 60.5119C138.829 60.3834 138.936 60.2336 139.016 60.0688C139.453 59.3871 140.054 58.8268 140.764 58.4397C141.474 58.0526 142.27 57.8511 143.079 57.854L143.752 58.1229C143.222 57.6449 142.631 57.2402 141.995 56.9196Z" fill="#FF6582"/>
<path d="M149.276 62.1574C148.754 61.3868 148.136 60.5639 147.167 60.3123C146.045 60.0209 144.892 60.5998 143.914 61.1711C141.007 62.8687 138.191 64.72 135.479 66.7171L135.482 66.747L141.777 66.3596C143.292 66.2664 144.86 66.1602 146.2 65.5203C146.681 65.2179 147.218 65.0172 147.78 64.9305C148.128 64.9494 148.469 65.0372 148.783 65.189C149.097 65.3407 149.378 65.5533 149.61 65.8144C152.51 68.571 153.35 72.7865 156.604 75.2083C154.533 70.6585 152.082 66.2926 149.276 62.1574Z" fill="white"/>
<path d="M141.373 83.0644C141.227 83.0705 141.087 83.0766 140.948 83.0827C139.933 82.7173 138.894 82.3945 137.843 82.1143C137.163 81.9316 136.47 81.7671 135.778 81.6271C134.994 81.4566 134.205 81.3225 133.415 81.2068C131.911 80.9876 130.396 80.8594 128.877 80.8231C128.865 80.8244 128.854 80.8232 128.843 80.8196C128.832 80.8161 128.822 80.8102 128.813 80.8025C128.804 80.7947 128.798 80.7852 128.793 80.7746C128.788 80.764 128.786 80.7525 128.786 80.7409C128.786 80.7293 128.788 80.7178 128.793 80.7072C128.798 80.6966 128.804 80.6871 128.813 80.6794C128.822 80.6716 128.832 80.6658 128.843 80.6622C128.854 80.6586 128.865 80.6574 128.877 80.6587C129.071 80.6587 129.266 80.6648 129.454 80.677C130.976 80.7334 132.494 80.8818 133.998 81.1216C134.782 81.2495 135.565 81.4017 136.343 81.5723C137.048 81.7307 137.752 81.9073 138.445 82.1022C139.435 82.3823 140.411 82.703 141.373 83.0644Z" fill="white"/>
<path d="M158.893 83.8188C158.789 83.8005 158.686 83.7884 158.577 83.7762C158.157 83.4291 157.732 83.1002 157.289 82.7774C156.736 82.3754 156.165 81.9978 155.582 81.6445C154.29 80.8585 152.942 80.1704 151.548 79.5859C149.344 78.6659 147.063 77.9444 144.732 77.4299C142.073 76.8458 139.381 76.4227 136.671 76.163C133.962 75.8828 131.24 75.7124 128.519 75.5418C128.403 75.5357 128.397 75.3652 128.519 75.3712C128.859 75.3956 129.199 75.4138 129.545 75.4382C132.297 75.6088 135.049 75.8037 137.783 76.1144C140.493 76.4056 143.182 76.8735 145.832 77.5151C148.094 78.0741 150.302 78.8343 152.429 79.7869C153.652 80.3381 154.838 80.9709 155.977 81.681C156.699 82.1378 157.398 82.6251 158.066 83.1428C158.346 83.362 158.625 83.5814 158.893 83.8188Z" fill="white"/>
<path d="M157.751 83.6787C157.64 83.6609 157.528 83.6487 157.416 83.6422C157.289 83.5387 157.155 83.4412 157.022 83.3437C156.086 82.6726 155.111 82.0603 154.1 81.5105C153.181 81.0102 152.239 80.5569 151.275 80.1523C149.072 79.2295 146.791 78.5079 144.459 77.9963C141.8 77.4122 139.108 76.9891 136.398 76.7295C133.688 76.4492 130.967 76.2788 128.245 76.1082C128.13 76.096 128.13 75.9316 128.245 75.9377C128.592 75.962 128.932 75.9803 129.272 76.0047C132.024 76.1751 134.776 76.3701 137.509 76.6807C140.22 76.972 142.909 77.4399 145.558 78.0816C147.821 78.6394 150.029 79.3997 152.156 80.3533C152.957 80.7187 153.741 81.1146 154.507 81.5471C155.642 82.1719 156.726 82.8846 157.751 83.6787Z" fill="white"/>
<path d="M166.948 85.147C166.851 85.1288 166.753 85.1044 166.656 85.0862C166.547 84.9704 166.444 84.8486 166.34 84.7268C165.818 84.1238 165.302 83.5147 164.791 82.8996C162.781 80.4999 160.873 78.0271 159.075 75.5057C157.532 73.3496 156.068 71.1509 154.683 68.9096C154.021 67.8498 153.383 66.7779 152.757 65.6937C152.271 64.8533 151.797 64.0108 151.336 63.1662C151.202 62.9226 151.074 62.6789 150.947 62.4353C150.649 61.8627 150.351 61.2842 150.036 60.7178C149.692 60.0238 149.188 59.4224 148.565 58.9637C148.254 58.7548 147.894 58.6309 147.521 58.6044C146.994 58.6063 146.476 58.7403 146.014 58.9941C142.615 60.5809 139.409 62.5529 136.458 64.8715C133.576 67.1189 130.97 69.7011 128.695 72.5639C128.622 72.6492 128.464 72.57 128.531 72.4786C128.804 72.1376 129.084 71.7965 129.363 71.4615C131.55 68.8679 134.013 66.5214 136.707 64.4635C136.713 64.4574 136.726 64.4513 136.732 64.4452C136.969 64.2564 137.206 64.0737 137.449 63.8971C138.953 62.7863 140.519 61.7615 142.138 60.8274C142.964 60.3462 143.809 59.8894 144.672 59.457C144.884 59.3474 145.103 59.2378 145.321 59.1342C145.54 59.0246 145.759 58.9211 145.978 58.8175C146.41 58.5962 146.884 58.4656 147.369 58.4339C149.058 58.4095 149.926 60.1149 150.528 61.2659C150.716 61.6253 150.91 61.9846 151.099 62.344C151.828 63.7021 152.587 65.0543 153.377 66.3881C153.857 67.2164 154.355 68.0387 154.859 68.8548C155.582 70.0181 156.323 71.1692 157.094 72.3143C157.094 72.3151 157.095 72.3158 157.095 72.3166C157.095 72.3173 157.096 72.318 157.096 72.3185C157.097 72.3191 157.097 72.3196 157.098 72.3199C157.099 72.3202 157.1 72.3204 157.1 72.3204H157.101C157.994 73.6725 158.923 75.0002 159.883 76.3219C161.529 78.5814 163.254 80.7903 165.059 82.9484C165.678 83.6914 166.308 84.4243 166.948 85.147Z" fill="white"/>
<path d="M145.275 58.2472L145.107 58.3209C144.722 57.6692 144.182 57.123 143.536 56.7308C142.89 56.3386 142.157 56.1125 141.403 56.0726C138.916 55.8955 136.731 57.5572 136.533 59.7766C136.452 60.6905 136.716 61.6015 137.272 62.3299L137.116 62.4224C136.537 61.6638 136.262 60.7151 136.346 59.7633C136.553 57.4521 138.828 55.7216 141.418 55.9061C142.203 55.9476 142.966 56.183 143.639 56.5914C144.312 56.9999 144.874 57.5686 145.275 58.2472Z" fill="#FF6582"/>
<path d="M132.986 62.7384C132.333 62.4538 131.622 62.329 130.912 62.3743C130.201 62.4197 129.512 62.6338 128.9 62.9991C131.133 63.3425 133.345 63.8034 135.529 64.3799C134.625 63.9069 133.918 63.166 132.986 62.7384Z" fill="white"/>
<path d="M128.888 62.9961L128.642 63.1744C128.725 63.112 128.812 63.0535 128.9 62.9981L128.888 62.9961Z" fill="white"/>
<path d="M136.29 64.0301C136.192 63.9326 136.095 63.8352 135.996 63.7377C135.24 62.9127 134.329 62.2447 133.316 61.7716C132.8 61.5538 132.247 61.4393 131.687 61.4346C131.109 61.4482 130.537 61.5595 129.996 61.7638C129.741 61.8546 129.492 61.9576 129.247 62.0674C128.967 62.1932 128.691 62.3275 128.417 62.4628C127.903 62.7168 127.396 62.9819 126.895 63.2582C125.898 63.8079 124.932 64.3996 123.998 65.0332C123.514 65.3618 123.039 65.7012 122.575 66.0514C122.143 66.3766 121.72 66.7106 121.306 67.0534C121.217 67.1263 121.085 67.0082 121.173 66.9353C121.283 66.8445 121.393 66.7542 121.504 66.6652C121.816 66.4134 122.133 66.1665 122.455 65.9244C123.042 65.4821 123.644 65.057 124.262 64.6489C125.223 64.014 126.216 63.4221 127.243 62.8733C127.756 62.5993 128.276 62.3368 128.803 62.0857C128.962 62.01 129.123 61.9359 129.286 61.8658C129.658 61.6985 130.042 61.5591 130.435 61.4486C130.998 61.2868 131.586 61.2352 132.169 61.2965C132.727 61.3679 133.268 61.535 133.769 61.7906C134.762 62.3486 135.658 63.065 136.422 63.9115C136.502 63.9917 136.37 64.1103 136.29 64.0301Z" fill="white"/>
<path d="M45.5183 41.2766C59.2114 36.8965 74.4879 38.0561 87.4602 44.2268C91.1616 45.9783 94.6572 48.1369 97.8828 50.6628C98.7953 51.3808 100.094 50.0965 99.1714 49.3708C87.2566 40.1054 72.2859 35.7038 57.2671 37.0506C53.1121 37.4234 49.0101 38.2496 45.0338 39.5147C43.9207 39.8707 44.3965 41.6355 45.5183 41.2766L45.5183 41.2766Z" fill="#3F3D56"/>
<path d="M45.5183 53.4563C59.2114 49.0762 74.4879 50.2358 87.4602 56.4064C91.1616 58.158 94.6572 60.3166 97.8828 62.8425C98.7953 63.5605 100.094 62.2762 99.1714 61.5505C87.2566 52.285 72.2859 47.8835 57.2671 49.2303C53.1121 49.6031 49.0101 50.4293 45.0338 51.6944C43.9207 52.0504 44.3965 53.8151 45.5183 53.4563L45.5183 53.4563Z" fill="#3F3D56"/>
<path d="M45.5183 65.6379C59.2114 61.2578 74.4879 62.4174 87.4602 68.5881C91.1615 70.3396 94.6572 72.4982 97.8828 75.0242C98.7953 75.7421 100.094 74.4579 99.1714 73.7322C87.2566 64.4667 72.2859 60.0652 57.2671 61.4119C53.1121 61.7847 49.0101 62.6109 45.0338 63.876C43.9207 64.2321 44.3965 65.9968 45.5183 65.6379L45.5183 65.6379Z" fill="#3F3D56"/>
<path d="M45.5183 77.8196C59.2114 73.4395 74.4879 74.5991 87.4602 80.7697C91.1616 82.5212 94.6572 84.6799 97.8828 87.2058C98.7953 87.9238 100.094 86.6395 99.1714 85.9138C87.2566 76.6483 72.2859 72.2468 57.2671 73.5936C53.1121 73.9663 49.0101 74.7926 45.0338 76.0577C43.9207 76.4137 44.3965 78.1784 45.5183 77.8196L45.5183 77.8196Z" fill="#3F3D56"/>
<path d="M45.5183 90.0012C59.2114 85.6211 74.4879 86.7807 87.4602 92.9514C91.1616 94.7029 94.6572 96.8615 97.8828 99.3875C98.7953 100.105 100.094 98.8211 99.1714 98.0955C87.2566 88.83 72.2859 84.4284 57.2671 85.7752C53.1121 86.148 49.0101 86.9742 45.0338 88.2393C43.9207 88.5953 44.3965 90.3601 45.5183 90.0012H45.5183Z" fill="#3F3D56"/>
<path d="M94.853 14.428V43.6379C94.853 44.2184 93.8408 44.7043 92.4769 44.8376C92.4653 44.8369 92.4537 44.8383 92.4426 44.8419C92.2153 44.8591 91.9752 44.872 91.7307 44.872C90.9788 44.8858 90.2305 44.7634 89.5219 44.5108C89.4576 44.485 89.3933 44.4549 89.3289 44.4291C89.2689 44.3947 89.2045 44.3646 89.1445 44.3302C88.8057 44.1281 88.6084 43.8916 88.6084 43.6379V11.9082C90.7551 12.5756 92.8436 13.4184 94.853 14.428Z" fill="#EB5757"/>
<path d="M107.942 21.2031H107.049V125.364H107.942V21.2031Z" fill="#E6E6E6"/>
<path d="M204.965 92.5073C205.598 92.4493 206.21 92.2529 206.759 91.932C207.308 91.6111 207.78 91.1734 208.141 90.6498C208.503 90.1263 208.746 89.5295 208.853 88.9017C208.96 88.2738 208.928 87.6301 208.76 87.0158L227.279 78.349L238.427 60.2679L229.664 56.7207L222.143 71.291L203.107 84.0091C202.097 84.3606 201.25 85.0715 200.727 86.0071C200.204 86.9428 200.042 88.0381 200.271 89.0857C200.5 90.1332 201.105 91.0601 201.97 91.6907C202.835 92.3213 203.901 92.6119 204.965 92.5073V92.5073Z" fill="#FFB6B6"/>
<path d="M245.304 42.9467C245.304 42.9467 247.486 43.6609 245.091 47.9051C243.173 51.3029 233.832 70.8747 230.019 74.7176C230.42 75.3621 230.596 76.1221 230.519 76.8779C230.442 77.6336 230.116 78.3422 229.593 78.892L220.792 71.8891C220.623 69.3422 222.304 69.0894 223.301 69.1754L225.326 61.98L232.388 44.2301L243.736 42.4023L245.304 42.9467Z" fill="#6C63FF"/>
<path d="M245.494 9.67851C245.91 7.99153 248.929 6.74591 243.758 4.39068C242.503 3.81908 242.555 1.85063 241.493 0.969091C240.431 0.0875488 238.876 -0.321145 237.642 0.295019C236.541 0.84525 235.92 2.09044 235.787 3.31753C235.724 4.55257 235.866 5.78956 236.208 6.97773L236.108 7.12459C238.156 8.69628 240.205 10.2679 242.254 11.8396C243.006 12.4171 243.991 13.0219 244.834 12.5885C245.789 12.0979 245.236 10.723 245.494 9.67851Z" fill="#2F2E41"/>
</g>
<defs>
<clipPath id="clip0_1619_1810">
<rect width="287" height="220" fill="white"/>
</clipPath>
</defs>
</svg>
