<svg width="32" height="24" viewBox="0 0 32 24" fill="none" xmlns="http://www.w3.org/2000/svg">
<path d="M16 0L15.6801 0.125137L2.90463 5.64171L0 6.87596L1.69147 7.57409V19.0999C1.08132 19.557 0.669435 20.3908 0.669435 21.3655C0.669435 22.0642 0.884792 22.7343 1.26813 23.2284C1.65147 23.7224 2.17139 24 2.71351 24C3.25563 24 3.77555 23.7224 4.15889 23.2284C4.54223 22.7343 4.75759 22.0642 4.75759 21.3655C4.75759 20.3908 4.3457 19.557 3.73555 19.0999V8.48299L5.77962 9.34577V16.0966C5.77962 17.1767 6.29064 18.0724 6.89773 18.6915C7.50482 19.3067 8.25909 19.7414 9.16461 20.1313C10.9777 20.9085 13.3672 21.3655 16 21.3655C18.6328 21.3655 21.0223 20.9098 22.8354 20.13C23.7409 19.7414 24.4952 19.3067 25.1023 18.6902C25.7094 18.0724 26.2204 17.1767 26.2204 16.0966V9.34577L29.0954 8.11021L32 6.87596L29.0943 5.6404L16.3189 0.125137L16 0ZM16 2.7596L25.5816 6.87596L16 10.9923L6.4184 6.87596L16 2.7596ZM7.8237 10.252L15.6811 13.6268L16 13.7506L16.3199 13.6255L24.1763 10.2507V16.0966C24.1763 16.1098 24.1804 16.2626 23.8564 16.5906C23.5334 16.9199 22.9539 17.3348 22.1956 17.6615C20.6809 18.3109 18.4478 18.7311 16 18.7311C13.5522 18.7311 11.3191 18.3122 9.80338 17.6602C9.04708 17.3348 8.46656 16.9186 8.1436 16.5906C7.81859 16.2612 7.8237 16.1098 7.8237 16.0966V10.2507V10.252Z" fill="#B3B3B3"/>
</svg>
