<svg width="32" height="30" viewBox="0 0 32 30" fill="none" xmlns="http://www.w3.org/2000/svg">
<path d="M30.4 13.3996H27.2V3.79961H28.8V0.599609H3.2V3.79961H4.8V13.3996H1.6C1.17565 13.3996 0.768687 13.5682 0.468629 13.8682C0.168571 14.1683 0 14.5753 0 14.9996V29.3996H32V14.9996C32 14.5753 31.8314 14.1683 31.5314 13.8682C31.2313 13.5682 30.8243 13.3996 30.4 13.3996ZM19.2 26.1996V19.7996H12.8V26.1996H8V3.79961H24V26.1996H19.2Z" fill="#E0E0E0"/>
<path d="M11.2008 7H14.4008V10.2H11.2008V7ZM17.6008 7H20.8008V10.2H17.6008V7ZM11.2008 13.4H14.4008V16.6H11.2008V13.4ZM17.6008 13.4H20.8008V16.6H17.6008V13.4Z" fill="#E0E0E0"/>
</svg>
