<svg width="32" height="32" viewBox="0 0 32 32" fill="none" xmlns="http://www.w3.org/2000/svg">
<path d="M16.0008 6.85742C14.8706 6.85742 13.7658 7.19256 12.8261 7.82045C11.8864 8.44835 11.154 9.3408 10.7215 10.3849C10.289 11.4291 10.1758 12.578 10.3963 13.6865C10.6168 14.795 11.161 15.8132 11.9602 16.6123C12.7593 17.4115 13.7775 17.9557 14.886 18.1762C15.9944 18.3967 17.1434 18.2835 18.1876 17.851C19.2317 17.4185 20.1241 16.6861 20.752 15.7464C21.3799 14.8067 21.7151 13.7019 21.7151 12.5717C21.7151 11.0562 21.113 9.60273 20.0414 8.5311C18.9698 7.45946 17.5163 6.85742 16.0008 6.85742ZM16.0008 16.0003C15.3227 16.0003 14.6598 15.7992 14.096 15.4225C13.5321 15.0457 13.0927 14.5103 12.8332 13.8838C12.5737 13.2573 12.5058 12.5679 12.6381 11.9028C12.7704 11.2377 13.0969 10.6268 13.5764 10.1473C14.0559 9.66785 14.6668 9.34131 15.3319 9.20901C15.997 9.07672 16.6864 9.14462 17.3128 9.40412C17.9393 9.66362 18.4748 10.1031 18.8515 10.6669C19.2283 11.2307 19.4294 11.8936 19.4294 12.5717C19.4285 13.4807 19.0669 14.3523 18.4242 14.9951C17.7814 15.6379 16.9098 15.9994 16.0008 16.0003Z" fill="#B3B3B3"/>
<path d="M16 0C12.8355 0 9.74207 0.938384 7.11088 2.69649C4.4797 4.45459 2.42894 6.95345 1.21793 9.87706C0.00693253 12.8007 -0.309921 16.0177 0.307443 19.1214C0.924806 22.2251 2.44866 25.0761 4.6863 27.3137C6.92394 29.5513 9.77487 31.0752 12.8786 31.6926C15.9823 32.3099 19.1993 31.9931 22.1229 30.7821C25.0466 29.5711 27.5454 27.5203 29.3035 24.8891C31.0616 22.2579 32 19.1645 32 16C31.9952 11.758 30.3079 7.69117 27.3084 4.69164C24.3088 1.6921 20.242 0.00483968 16 0ZM9.14286 27.8594V26.2857C9.14377 25.3767 9.50529 24.5051 10.1481 23.8623C10.7909 23.2196 11.6624 22.858 12.5714 22.8571H19.4286C20.3376 22.858 21.2092 23.2196 21.8519 23.8623C22.4947 24.5051 22.8562 25.3767 22.8571 26.2857V27.8594C20.7762 29.0745 18.4097 29.7148 16 29.7148C13.5903 29.7148 11.2238 29.0745 9.14286 27.8594ZM25.1337 26.2011C25.1109 24.7021 24.5002 23.272 23.433 22.219C22.3659 21.1659 20.9278 20.5742 19.4286 20.5714H12.5714C11.0722 20.5742 9.63411 21.1659 8.56696 22.219C7.49982 23.272 6.88907 24.7021 6.86629 26.2011C4.79379 24.3506 3.33227 21.9141 2.67525 19.2145C2.01822 16.5148 2.19669 13.6792 3.18702 11.0833C4.17735 8.48728 5.93283 6.25333 8.221 4.67722C10.5092 3.1011 13.2221 2.25717 16.0006 2.25717C18.779 2.25717 21.492 3.1011 23.7801 4.67722C26.0683 6.25333 27.8238 8.48728 28.8141 11.0833C29.8045 13.6792 29.9829 16.5148 29.3259 19.2145C28.6689 21.9141 27.2074 24.3506 25.1349 26.2011H25.1337Z" fill="#B3B3B3"/>
</svg>
